<?xml version="1.0" standalone="no"?>
<!DOCTYPE svg PUBLIC "-//W3C//DTD SVG 20010904//EN"
 "http://www.w3.org/TR/2001/REC-SVG-20010904/DTD/svg10.dtd">
<svg version="1.0" xmlns="http://www.w3.org/2000/svg"
 width="2048.000000pt" height="2048.000000pt" viewBox="0 0 2048.000000 2048.000000"
 preserveAspectRatio="xMidYMid meet">
<metadata>
Created by potrace 1.11, written by Peter Selinger 2001-2013
</metadata>
<g transform="translate(0.000000,2048.000000) scale(0.100000,-0.100000)"
fill="#000000" stroke="none">
<path d="M4420 20473 c-991 -44 -1928 -398 -2700 -1018 -683 -550 -1196 -1288
-1475 -2119 -116 -345 -178 -638 -227 -1061 -16 -146 -25 -11594 -9 -11890 31
-556 142 -1048 348 -1544 419 -1009 1197 -1846 2174 -2341 566 -287 1172 -450
1819 -490 231 -14 11564 -14 11790 0 818 52 1573 302 2252 746 273 178 502
366 743 608 256 257 455 509 653 823 103 165 296 546 365 723 182 463 285 930
317 1430 14 225 14 11558 0 11790 -70 1147 -538 2189 -1345 2995 -597 597
-1330 1013 -2139 1214 -292 73 -547 111 -866 131 -136 8 -11514 12 -11700 3z
m7125 -4360 c-12 -27 -300 -673 -639 -1438 -340 -764 -631 -1419 -647 -1454
-16 -35 -29 -69 -29 -76 0 -7 -4 -15 -8 -17 -5 -2 -1016 -2270 -2248 -5040
l-2239 -5038 -1542 0 -1542 0 17 39 c9 22 1414 2971 3122 6555 l3105 6516
1337 0 1336 0 -23 -47z m3255 -6723 c1613 -3374 2954 -6181 2981 -6238 l48
-102 -1542 0 -1542 0 -2245 5006 c-1235 2753 -2246 5011 -2248 5017 -1 7 3 2
9 -10 7 -13 15 -23 18 -23 6 0 1508 2354 1561 2446 13 23 25 42 26 41 1 -1
1322 -2763 2934 -6137z"/>
</g>
</svg>
